<svg xmlns="http://www.w3.org/2000/svg" viewBox="0 0 214.51 39.06">
    <defs>
        <style>.cls-1{fill:#ffffff;}</style>
    </defs>
    <title>special-vehiclesРесурс 1</title>
    <g id="Слой_2" data-name="Слой 2">
        <g id="Layer_1" data-name="Layer 1">
            <path class="cls-1"
                  d="M46.33,27.21h0v0l-.1-.13L29.86,4l-.21-.3-.12-.17h0a9,9,0,0,0-14.45.22h0L1.88,22.32v0a10.53,10.53,0,0,0-1.89,6,10.81,10.81,0,0,0,20,5.49H32.58a7.73,7.73,0,0,0,15-2.46A7.5,7.5,0,0,0,46.33,27.21ZM22.38,5a3.83,3.83,0,1,1-3.87,3.83A3.84,3.84,0,0,1,22.38,5ZM10.79,34a5.64,5.64,0,1,1,5.7-5.64A5.67,5.67,0,0,1,10.79,34Zm.42-16.3,3.3-4.64a9,9,0,0,0,15.72,0L38,24A7.69,7.69,0,0,0,32.58,29h-11c0-.19,0-.38,0-.57A10.72,10.72,0,0,0,11.21,17.73ZM39.88,34.14a2.72,2.72,0,1,1,2.76-2.72A2.74,2.74,0,0,1,39.88,34.14Z"/>
           </g>
    </g>
</svg>